<svg xmlns="http://www.w3.org/2000/svg" width="329.917" height="78.846" viewBox="0 0 329.917 78.846">
  <g id="Group_979" data-name="Group 979" transform="translate(-104.529 -82.248)">
    <path id="Path_1408" data-name="Path 1408" d="M158.325,152.669H118.253a5.287,5.287,0,0,1-5.281-5.28V96.245a5.287,5.287,0,0,1,5.281-5.281h40.072V82.5H117.992a13.478,13.478,0,0,0-13.463,13.463v51.647a13.477,13.477,0,0,0,13.463,13.462h40.333Z" fill="#93d500"/>
    <path id="Path_1409" data-name="Path 1409" d="M158.325,136.654H132.313l-3.429-3.429V110.4l3.472-3.472h25.969V98.937H129.137l-8.147,8.147v29.46l8.147,8.148h29.189Z" fill="#93d500"/>
    <path id="Path_1410" data-name="Path 1410" d="M165.541,152.669h40.072a5.287,5.287,0,0,0,5.281-5.28V96.245a5.287,5.287,0,0,0-5.281-5.281H165.541V82.5h40.333a13.478,13.478,0,0,1,13.463,13.463v51.647a13.477,13.477,0,0,1-13.463,13.462H165.541Z" fill="#00abc8"/>
    <path id="Path_1411" data-name="Path 1411" d="M165.541,136.654h26.013l3.429-3.429V110.4l-3.472-3.472H165.541V98.937h29.189l8.147,8.147v29.46l-8.147,8.148H165.541Z" fill="#00abc8"/>
    <g id="Group_978" data-name="Group 978">
      <g id="Group_977" data-name="Group 977">
        <path id="Path_1412" data-name="Path 1412" d="M261.916,85.669a15.651,15.651,0,0,1,5.516,9.248h-8.719a8,8,0,0,0-2.962-3.709,8.282,8.282,0,0,0-4.745-1.349,7.231,7.231,0,0,0-5.828,2.649,10.685,10.685,0,0,0-2.215,7.081,10.58,10.58,0,0,0,2.215,7.056,7.254,7.254,0,0,0,5.828,2.626,8.282,8.282,0,0,0,4.745-1.349,8.032,8.032,0,0,0,2.962-3.661h8.719a15.729,15.729,0,0,1-5.516,9.224,16.574,16.574,0,0,1-10.765,3.444,16.979,16.979,0,0,1-8.719-2.192,14.854,14.854,0,0,1-5.8-6.141,20.832,20.832,0,0,1,0-18.015,14.878,14.878,0,0,1,5.8-6.141,16.988,16.988,0,0,1,8.719-2.192A16.657,16.657,0,0,1,261.916,85.669Z" fill="#93d500"/>
        <path id="Path_1413" data-name="Path 1413" d="M280.292,110.33h10.982v6.31H272.055V82.586h8.237Z" fill="#93d500"/>
        <path id="Path_1414" data-name="Path 1414" d="M303.316,89.137v7.128h11.512v6.214H303.316v7.562h12.957v6.6H295.079V82.586h21.194v6.551Z" fill="#93d500"/>
        <path id="Path_1415" data-name="Path 1415" d="M339.543,110.427h-9.659l-2.119,6.213H319.1L331.57,82.827h9.489l12.475,33.813h-8.766l-8.478-25L332,104.165h5.534Z" fill="#93d500"/>
        <path id="Path_1416" data-name="Path 1416" d="M373.592,116.64l-7.369-12.86h-1.878v12.86h-8.238V82.586h14.066a15.193,15.193,0,0,1,6.84,1.4,9.645,9.645,0,0,1,4.189,3.829,10.963,10.963,0,0,1,1.4,5.563,9.893,9.893,0,0,1-2.048,6.31,10.463,10.463,0,0,1-5.949,3.565l8.093,13.39Zm-9.247-18.5h5.105a5.145,5.145,0,0,0,3.613-1.084,4.183,4.183,0,0,0,1.155-3.2,4.249,4.249,0,0,0-1.18-3.179,4.943,4.943,0,0,0-3.588-1.156h-5.105Z" fill="#93d500"/>
        <path id="Path_1417" data-name="Path 1417" d="M394.979,110.33h10.982v6.31h-19.22V82.586h8.238Z" fill="#93d500"/>
        <path id="Path_1418" data-name="Path 1418" d="M434.446,82.586l-11.8,22.735V116.64h-8.284V105.321l-11.8-22.735H412l6.55,13.872L425.1,82.586Z" fill="#93d500"/>
        <path id="Path_1419" data-name="Path 1419" d="M261.916,129.833a15.657,15.657,0,0,1,5.516,9.248h-8.719a8,8,0,0,0-2.962-3.708,8.282,8.282,0,0,0-4.745-1.349,7.231,7.231,0,0,0-5.828,2.649,12.386,12.386,0,0,0,0,14.137,7.253,7.253,0,0,0,5.828,2.625,8.282,8.282,0,0,0,4.745-1.348,8.038,8.038,0,0,0,2.962-3.661h8.719a15.732,15.732,0,0,1-5.516,9.224,16.579,16.579,0,0,1-10.765,3.444,16.979,16.979,0,0,1-8.719-2.192,14.854,14.854,0,0,1-5.8-6.141,20.832,20.832,0,0,1,0-18.015,14.878,14.878,0,0,1,5.8-6.141,16.988,16.988,0,0,1,8.719-2.192A16.662,16.662,0,0,1,261.916,129.833Z" fill="#00abc8"/>
        <path id="Path_1420" data-name="Path 1420" d="M280.292,154.495h10.982v6.31H272.055V126.751h8.237Z" fill="#00abc8"/>
        <path id="Path_1421" data-name="Path 1421" d="M303.316,133.3v7.129h11.512v6.214H303.316v7.562h12.957v6.6H295.079V126.751h21.194v6.55Z" fill="#00abc8"/>
        <path id="Path_1422" data-name="Path 1422" d="M386.357,160.8H378.12l-13.775-20.9v20.9h-8.238V126.751h8.238l13.775,21.1v-21.1h8.237Z" fill="#00abc8"/>
      </g>
      <path id="Path_1423" data-name="Path 1423" d="M339.543,154.742h-9.659l-2.119,6.214H319.1l12.475-33.814h9.489l12.475,33.814h-8.766l-8.478-25L332,148.48h5.534Z" fill="#00abc8"/>
    </g>
  </g>
</svg>
