<svg fill="none" viewBox="0 0 138 48" xmlns="http://www.w3.org/2000/svg"><g fill="#fdfdfd"><path d="m95.453 0-6.555 11.333 6.555 11.335h13.105l6.552-11.335-6.552-11.333zm0 25.284-6.555 11.334 6.555 11.334h13.105l6.552-11.334-6.552-11.334zm22.021-12.641-6.552 11.333 6.552 11.334h13.106l6.553-11.334-6.553-11.333zm-106.084 1.692v6.565h-6.824v-6.566h-4.566v17.493h4.566v-7.457h6.824v7.46h4.591v-17.497h-4.59zm19.403 17.493h-12.129v-17.494h12.6v3.445h-8.034v3.345h6.54v3.419h-6.54v3.816h7.563v3.47z"/><path d="m47.837 31.828h-5.112l-3.424-5.401-3.549 5.401h-4.962l6.13-9.07-5.657-8.423h5.086l3.027 4.732 3.077-4.732h5.062l-5.707 8.35 6.03 9.143z"/><path d="m61.407 31.42c-.913.41-3.173.855-5.275.855-6.278 0-9.976-3.94-9.976-8.995 0-4.931 3.498-9.392 10.298-9.392 1.986 0 3.5.372 4.69.719v3.89c-.62-.396-2.06-1.312-4.144-1.312-3.871 0-6.08 2.7-6.08 5.896 0 3.37 2.273 5.88 6.341 5.88 1.563 0 3.237-.447 4.146-1.042v3.5zm28.293.408h-12.037v-17.494h4.591v14h7.446zm-3.365-15.644c.279 0 .522-.027.522-.335 0-.257-.27-.298-.491-.298h-.427v.633zm-.05.309h-.346v.953h-.372v-2.206h.862c.545 0 .83.184.83.633 0 .402-.257.568-.599.603l.635.968h-.434l-.577-.952zm.056-1.68c-.841 0-1.5.655-1.5 1.53 0 .876.659 1.53 1.5 1.53.831 0 1.502-.654 1.502-1.53 0-.875-.67-1.53-1.502-1.53zm0-.402c1.02 0 1.934.779 1.934 1.932 0 1.154-.914 1.93-1.934 1.93-1.021 0-1.935-.776-1.935-1.93 0-1.153.914-1.932 1.935-1.932zm-10.806 17.417h-12.262v-17.494h12.072v3.445h-7.505v3.345h6.538v3.419h-6.538v3.816h7.695v3.47z"/></g></svg>