<?xml version="1.0" encoding="UTF-8"?>
<svg id="Layer_1" data-name="Layer 1" xmlns="http://www.w3.org/2000/svg" width="800" height="240" viewBox="0 0 800 240">
  <path d="M783.46,36.24c8.38,0,15.23,6.85,15.23,15.23s-6.85,15.19-15.23,15.19-15.19-6.81-15.19-15.19,6.81-15.23,15.19-15.23ZM783.46,63.74c6.81,0,12.27-5.5,12.27-12.27s-5.46-12.27-12.27-12.27-12.27,5.46-12.27,12.27,5.5,12.27,12.27,12.27ZM778,44.49c0-.42.34-.8.8-.8h6.26c2.62,0,5.2,1.78,5.2,4.99,0,3-1.95,4.19-3.21,4.65.76,1.57,1.52,3.17,2.24,4.7.3.55-.13,1.14-.72,1.14h-1.9c-.34,0-.63-.3-.76-.59l-2.12-4.99h-2.62v4.78c0,.42-.34.8-.8.8h-1.57c-.47,0-.8-.38-.8-.8v-13.87ZM784.85,50.79c1.27,0,2.12-.93,2.12-2.07,0-1.23-.85-2.07-2.12-2.07h-3.76v4.15h3.76Z" fill="#67bdea"/>
  <path d="M762.53,139.02c0,17.21-14.34,30.3-38,30.3-12.64,0-22.41-3.91-28.92-7.46h0c-8.13-4.62-16.07-.49-16.07-.49-6.68,3.7-17.4,7.95-31.19,7.95-30.24,0-47.67-20.05-50.35-42.31h-11.13s-34.96,0-34.96,0h-13.62c2.33,11.3,11.66,16.5,21.5,16.5,6.28,0,12.19-1.97,16.85-4.31,5.92-2.69,10.22-1.97,13.27,3.77l2.51,4.66c2.87,5.56,1.97,10.4-3.41,13.44-6.63,3.76-17.57,8.25-31.72,8.25-32.98,0-50.73-23.84-50.73-48.4,0-27.07,18.29-48.22,48.04-48.22,24.58,0,39.36,15.55,42.16,36.57h2.06c4.51-21.24,21.52-36.57,46.84-36.57,27.42,0,42.66,19.36,42.66,44.1,0,4.84-4.3,10.21-10.4,10.21h-27.6s-20.98,0-20.98,0c2.33,11.3,11.66,16.5,21.51,16.5,5.99,0,11.66-1.81,16.21-4,5.78-2.77,12.56-5.88,20.16-5.88,7.84,0,14.5,3.34,20.02,6.47l.43.19c4.47,1.96,10.22,4.84,17.57,4.84,6.27,0,8.42-2.33,8.42-5.2,0-10.76-43.2-5.56-43.2-38,0-19,17.04-29.22,38.37-29.22,11.66,0,20.44,3.22,26.17,5.92,5.56,2.69,6.27,7.7,3.59,13.26l-2.15,4.31c-2.7,5.73-6.99,6.63-13.09,4.3-4.3-1.61-9.68-3.59-15.77-3.59-6.63,0-8.25,2.33-8.25,4.85,0,10.57,43.2,5.2,43.2,37.28ZM630.06,109.27h20.26s7.35,0,7.35,0c0-7.52-4.84-13.8-12.73-13.8-8.96,0-13.26,6.46-14.88,13.8ZM566.61,109.27c0-7.52-4.85-13.8-12.73-13.8-8.96,0-13.27,6.46-14.88,13.8h12.91s14.7,0,14.7,0Z" fill="#67bdea" fill-rule="evenodd"/>
  <path d="M782.89,128.92c-9.22,0-17.11,7.16-17.11,18.58,0,11.26,7.89,18.13,17.11,18.13,9.22,0,17.11-6.87,17.11-18.13,0-11.41-7.89-18.58-17.11-18.58Z" fill="#67bdea" fill-rule="evenodd"/>
  <path d="M521.39,121.23c0,28.86-23.3,48.04-52.35,48.04-22.23,0-41.08-11.25-48.71-29.46l15.12-53.84c.29-1.11.44-2.15.46-3.12-11.74,8.53-19.22,21.93-19.22,38.38,0,6.76,1.29,13,3.63,18.58l-5.32,18.95c-1.62,5.73-5.2,8.42-10.93,8.42h-17.21c-5.92,0-9.51-2.87-10.94-8.61l-8.24-34.06c-1.26-5.02-1.8-9.86-1.8-9.86h-.35s-.55,4.84-1.8,9.86l-8.25,34.06c-1.44,5.73-5.02,8.61-10.93,8.61h-17.57c-5.74,0-9.33-2.69-10.94-8.42l-20.44-72.78c-1.79-6.81,1.44-11.12,8.43-11.12h12.19c6.09,0,9.5,2.87,10.76,8.78l9.67,45.71c1.07,5.02,1.07,9.68,1.07,9.68h.36s.36-4.66,1.61-9.68l10.76-45.89c1.26-5.73,4.85-8.61,10.76-8.61h8.97c5.91,0,9.5,2.87,10.75,8.61l10.76,45.89c1.26,5.02,1.44,9.68,1.44,9.68h.36s.18-4.66,1.25-9.68l9.68-45.71c1.25-5.91,4.66-8.78,10.76-8.78h11.83c2.95,0,5.22.78,6.74,2.17l-22.45-58.96c-2.36-6-.44-10.42,5.56-12.79l10.84-4.27c6-2.37,10.41-.45,12.79,5.55l25.19,66.2c1.06-.06,2.11-.09,3.18-.09,29.22,0,52.52,19.54,52.52,48.58ZM490.02,121.23c0-13.98-9.68-22.77-20.98-22.77-11.29,0-20.98,8.79-20.98,22.77,0,13.8,9.68,22.23,20.98,22.23,11.29,0,20.98-8.42,20.98-22.23Z" fill="#67bdea" fill-rule="evenodd"/>
  <path d="M33.31,74.67c0-5.02,4.12-8.97,13.98-8.97,8.42,0,14.34,3.06,20.25,5.92,5.02,2.51,9.86,3.59,13.44-3.41l4.31-8.42c2.69-5.2,2.15-9.68-3.05-13.44-6.1-4.31-19.72-9.51-34.59-9.51-26,0-45.71,15.6-45.71,39.26,0,40.15,56.65,37.28,56.65,55.39,0,5.02-4.31,8.97-13.63,8.97-11.11,0-19.18-5.73-23.3-7.89-5.92-3.22-10.04-2.86-13.63,2.33l-5.55,8.07c-4.66,6.63-1.97,10.57,1.79,13.62,6.81,5.38,22.76,12.73,40.69,12.73,28.86,0,45-18.46,45-39.98,0-40.52-56.65-36.03-56.65-54.67Z" fill="#67bdea" fill-rule="evenodd"/>
  <path d="M295.09,110.34v46.97c0,6.45-3.41,9.86-9.86,9.86h-8.61c-6.46,0-9.86-3.22-9.86-10.04v-.71c0-1.07.18-1.8.18-1.8h-.35s-8.79,14.7-27.26,14.7c-17.74,0-30.11-12.19-30.11-28.15,0-24.74,29.4-31.55,52.16-31.55h2.7s0-1.61,0-1.61c0-7.71-6.28-10.22-13.09-10.22-5.91,0-12.01,1.97-16.67,4.12-5.92,2.51-10.4,1.44-13.27-4.31l-2.15-4.47c-2.7-5.56-1.61-10.4,3.94-13.27,6.99-3.22,17.75-7.17,31.02-7.17,25.45,0,41.23,14.17,41.23,37.64ZM264.44,127.38h-2.86c-9.51,0-21.69,2.5-21.69,10.93,0,4.3,3.04,7.88,8.78,7.88,8.96,0,15.77-8.78,15.77-16.32v-2.5Z" fill="#67bdea" fill-rule="evenodd"/>
  <path d="M214.43,93.85v-10.03c0-6.46-2.15-9.87-8.42-9.87-11.66,0-21.51,12.73-24.56,22.24h-.36s.36-2.69.36-5.73v-5.74c0-6.45-3.41-9.86-9.86-9.86h-10.04c-6.46,0-9.86,3.41-9.86,9.86v54.86h-14.01c-.71-.14-1.47-.26-2.3-.36-5.56-.72-10.76-3.76-10.76-11.66v-27.96h9.67c6.28,0,9.69-3.41,9.69-9.86v-4.48c0-6.46-3.41-9.86-9.87-9.86h-9.5v-16.68c0-6.45-3.41-9.86-9.86-9.86h-10.4c-6.46,0-9.87,3.41-9.87,9.86v16.68h-3.41c-6.45,0-9.86,3.4-9.86,9.86v4.48c0,6.45,3.41,9.86,9.68,9.86h2.7v33.7c0,27.21,24.87,33.6,38.57,33.7h0s.32,0,.32,0h0l14.61.13,14.43.06h11.29c6.46,0,9.86-3.41,9.86-9.86v-26c0-15.06,7.17-27.6,21.87-27.6,6.45,0,9.86-3.41,9.86-9.87Z" fill="#67bdea" fill-rule="evenodd"/>
</svg>